<?xml version="1.0" encoding="utf-8"?>
<!-- Generator: Adobe Illustrator 19.0.1, SVG Export Plug-In . SVG Version: 6.00 Build 0)  -->
<svg version="1.1" id="Layer_1" xmlns="http://www.w3.org/2000/svg" xmlns:xlink="http://www.w3.org/1999/xlink" x="0px" y="0px"
	 viewBox="0 0 300 85" style="enable-background:new 0 0 300 85;" xml:space="preserve">
<style type="text/css">
	.st0{fill:#0262B2;}
	.st1{fill:#11358E;}
	.st2{fill:#52CAF3;}
	.st3{fill:#FFCD39;}
</style>
<g>
	<path class="st0" d="M37.7,3.4C18.3,3.4,2.6,19.1,2.6,38.5c0,5.5,1.3,10.7,3.5,15.4c13.6-3.8,23.5-12.1,28.1-16.6
		c2.2,5.4,5.2,12.7,5.8,14.6c-4.7,3.5-14.8,9.1-30,8.3c0.4,0.5,0.7,0.9,1.1,1.3l8.2,19.8l0,0.1l10.6-8.6c2.5,0.5,5,0.8,7.6,0.8
		c19.4,0,35.1-15.7,35.1-35.1C72.8,19.1,57.1,3.4,37.7,3.4z"/>
	<polygon class="st1" points="40.1,51.8 32.2,32 79.7,16.7 41.4,36.9 	"/>
	<polygon class="st2" points="41.4,36.9 40.1,51.8 80.3,16.3 	"/>
	<polygon class="st2" points="41.4,36.9 60.5,50.3 83,14.8 19.6,24.3 32.2,32 79.7,16.7 	"/>
	<polyline class="st3" points="41.4,36.9 60.5,50.3 54,30.2 41.4,36.9 	"/>
	<polygon class="st3" points="32.2,32 51.3,25.8 19.6,24.3 	"/>
	<g>
		<path class="st1" d="M99.5,28.7c6.1,0.1,11.8,3.2,14.1,9.4h-2.3c-2.2-4.7-6.8-7.2-11.9-7.2c-8.2-0.1-13.8,6.1-13.8,14.4
			c0,8.2,5.5,14.3,13.8,14.3c5.3,0,10.1-2.8,12.1-7.8h2.3c-2.1,6.5-8,10-14.3,10c-9.3,0-16.2-6.7-16.2-16.5
			C83.3,35.4,90.2,28.7,99.5,28.7z"/>
		<path class="st1" d="M120.8,27.6v25.4c0,4.7,0.8,7.3,6.1,6.5l0.1,1.9c-6.8,1-8.5-2.1-8.5-8.4V27.6H120.8z"/>
		<path class="st1" d="M131.1,29.8c0.7,0,1.5,0.6,1.5,1.6s-0.7,1.5-1.4,1.6c-0.8,0-1.6-0.5-1.6-1.6
			C129.6,30.3,130.4,29.7,131.1,29.8z M132.2,61.3H130V39.3h2.2V61.3z"/>
		<path class="st1" d="M141.4,43.6c1.8-3.7,4.9-5,8.8-5c6.5,0,10.1,5.4,10.1,11.6c0,10.6-10.6,14.7-18.6,8.7v14h-2.2V45.9
			c0-3.4,0.3-5.7-2.9-5.2l-0.1-1.8c3.7-0.6,4.8,1,4.8,4.1V43.6z M141.7,56.5c6.8,5.7,16.4,3.1,16.4-6.4c0-5-2.8-9.5-8.2-9.5
			c-4.9,0-8,3.8-8.2,8.5V56.5z"/>
		<path class="st1" d="M184.4,33.8h-14.2v8.5h13.5V47h-13.5v9.4h14.5v4.9h-19.9V29.1h19.6V33.8z"/>
		<path class="st1" d="M192.8,54.8c0.1,2.3,2.7,3.4,5.1,3.4c2.4,0,5.2-0.7,5.3-3.4c0-2-2.1-2.6-5-3c-4.6-0.6-9.7-1.1-9.8-6.1
			c0-4.7,4.6-7,9.4-7c5.1,0,9.6,2.3,9.4,6.7h-4.4c0-2.2-2.7-2.9-5-2.9c-2.3,0-4.7,1.1-4.6,3.1c0,1.8,1.8,2.3,5.3,2.7
			c4.7,0.6,9.2,1.4,9.2,6.6c0,4.9-4.7,7-9.7,7c-4.9,0-9.8-1.6-10.2-7.1H192.8z"/>
		<path class="st1" d="M228.3,46.5c-1-2.4-3.3-3.5-5.9-3.5c-3.4,0-6.9,2.5-6.9,7.2c0,4.8,3.5,7.2,6.8,7.2c2.5,0,5-1.3,6-4.1h4.8
			c-1.2,5.6-6,8.4-10.9,8.4c-5.8,0-11.7-3.9-11.7-11.6c0-7.6,5.9-11.6,11.7-11.7c4.8,0,9.6,2.6,10.8,8H228.3z"/>
		<path class="st1" d="M247.4,61.7c-5.9,0-11.7-3.9-11.7-11.6c0-7.6,5.7-11.5,11.5-11.6c5.9-0.1,11.9,3.8,11.9,11.6
			C259.1,57.9,253.2,61.7,247.4,61.7z M247.4,57.3c3.3,0,6.6-2.4,6.6-7.2c0-4.8-3.5-7.2-6.9-7.1c-3.3,0.1-6.5,2.4-6.5,7.1
			C240.6,55,244,57.4,247.4,57.3z"/>
		<path class="st1" d="M268.1,27.6v25.8c0,3.7,1,4.8,4.8,4.2l0.2,3.9c-6.8,1.1-10-0.6-10-8.1V27.6H268.1z"/>
		<path class="st1" d="M282.9,61.7c-4.1,0-8-2.6-8-6.9c-0.1-5.3,3.7-7.8,8.6-7.8c2.2,0,4.6,0.6,6.6,1.7v-2.2c0-5.9-10-3.9-12.8-2.5
			l-0.7-3.6c2.3-1.2,5.3-1.8,8.2-1.8c5.4,0,10.2,1.9,10.2,8v8.8c0,2.1-0.1,3.4,2.3,3.2l0.1,2.9c-3.5,0.6-6.2,0.6-6.4-3.8
			C289.6,60.5,286,61.7,282.9,61.7z M290.1,51.9c-1.7-1-3.8-1.6-5.8-1.5c-2.4,0-4.5,1.5-4.5,4.2c0,2.2,2,3.2,4.1,3.2
			c2.6,0,5.7-1.2,6.2-4.1V51.9z"/>
	</g>
</g>
</svg>
